<svg width="47" height="8" viewBox="0 0 47 8" fill="none" xmlns="http://www.w3.org/2000/svg">
<path d="M5.45228 0.339627L5.65121 1.01586H1.22245L3.12797 7.00382H3.82945C4.3355 5.3605 5.38109 2.00404 5.5151 1.72482C5.64912 1.4456 6.0386 1.27909 6.23753 1.27763C7.22868 1.27036 9.20679 1.26018 9.60883 1.27763C10.0109 1.29508 10.0241 1.71755 9.98575 1.92115C9.40293 3.7608 8.27405 7.39893 8.1954 7.57099C8.0907 7.80004 7.87083 7.95637 7.71378 7.98546C7.17284 7.98546 6.05954 8.01818 5.78732 7.98546C5.5377 7.95545 5.35806 7.82185 5.2743 7.54918L5.25336 7.00382H7.36828L8.86547 2.27017H6.37364C5.82222 3.98985 4.68379 7.50773 4.62516 7.64734C4.56653 7.78695 4.35295 7.98546 4.05979 7.98546H3.49441H2.70917C2.47405 7.98546 2.30434 7.73823 2.22756 7.60371L0.646602 2.65192C0.458144 2.08839 0.0665696 0.884978 0.00793818 0.579581C-0.0506933 0.274185 0.227806 0.00150988 0.437204 0.00150988C1.9344 0.00150988 4.97596 -0.00598326 5.11725 0.0124157C5.28477 0.0342301 5.42088 0.241463 5.45228 0.339627Z" fill="url(#paint0_linear_15_9)"/>
<path d="M16.6 7H15.4619L13.0247 0.950515H14.1753L16.0309 5.46598L17.899 0.950515H19.0371L16.6 7ZM23.7955 0.950515V1.90309H20.5666V3.51134H23.4615V4.41443H20.5666V6.03505H23.8945V7H19.5398V0.950515H23.7955ZM28.3658 4.79794L29.9493 7H28.6503L27.2029 4.95876H25.8668V7H24.84V0.950515H27.0915C28.007 0.950515 28.6627 1.10722 29.0585 1.42062C29.4627 1.72577 29.6647 2.22474 29.6647 2.91753C29.6647 3.91546 29.2317 4.54227 28.3658 4.79794ZM27.1286 4.0433C27.6977 4.0433 28.0895 3.9567 28.3039 3.7835C28.5183 3.61031 28.6256 3.31753 28.6256 2.90515C28.6256 2.50928 28.5183 2.24124 28.3039 2.10103C28.0895 1.95258 27.706 1.87835 27.1534 1.87835H25.8668V4.0433H27.1286ZM31.6012 2.47216C31.6012 2.72783 31.696 2.9134 31.8857 3.02887C32.0754 3.16907 32.4795 3.3134 33.0981 3.46186C33.7496 3.61856 34.2239 3.83299 34.5208 4.10515C34.8259 4.37732 34.9785 4.76907 34.9785 5.28041C34.9785 5.81649 34.7764 6.24948 34.3723 6.57938C33.9764 6.90928 33.4568 7.07423 32.8135 7.07423C31.8816 7.07423 31.0403 6.74433 30.2898 6.08454L30.9331 5.31753C31.5599 5.85361 32.195 6.12165 32.8383 6.12165C33.1599 6.12165 33.4197 6.05155 33.6177 5.91134C33.8156 5.76289 33.9146 5.5732 33.9146 5.34227C33.9146 5.11134 33.8239 4.9299 33.6424 4.79794C33.4692 4.66598 33.1558 4.54639 32.7022 4.43918C31.9187 4.25773 31.3744 4.0433 31.0692 3.79588C30.7146 3.52371 30.5373 3.10722 30.5373 2.54639C30.5373 2.00206 30.7352 1.57732 31.1311 1.27216C31.5269 0.958763 32.0342 0.802062 32.6527 0.802062C33.4857 0.802062 34.1991 1.04536 34.7929 1.53196L34.2486 2.29897C34.0671 2.13402 33.8239 2.00206 33.5187 1.90309C33.2135 1.79588 32.9125 1.74227 32.6156 1.74227C32.3104 1.74227 32.063 1.80825 31.8733 1.94021C31.6919 2.06392 31.6012 2.24124 31.6012 2.47216ZM40.1413 0.950515V1.90309H36.9124V3.51134H39.8073V4.41443H36.9124V6.03505H40.2403V7H35.8856V0.950515H40.1413ZM45.4414 0.950515V1.90309H42.2126V3.51134H45.1074V4.41443H42.2126V6.03505H45.5404V7H41.1858V0.950515H45.4414Z" fill="white"/>
<defs>
<linearGradient id="paint0_linear_15_9" x1="9.81077" y1="8" x2="-0.0929255" y2="0.366052" gradientUnits="userSpaceOnUse">
<stop stop-color="white"/>
<stop offset="0.658654" stop-color="#6200FF"/>
</linearGradient>
</defs>
</svg>